<?xml version="1.0" standalone="no"?>
<!DOCTYPE svg PUBLIC "-//W3C//DTD SVG 20010904//EN"
 "http://www.w3.org/TR/2001/REC-SVG-20010904/DTD/svg10.dtd">
<svg version="1.0" xmlns="http://www.w3.org/2000/svg"
 width="300.000000pt" height="289.000000pt" viewBox="0 0 300.000000 289.000000"
 preserveAspectRatio="xMidYMid meet">
<metadata>
Created by potrace 1.10, written by Peter Selinger 2001-2011
</metadata>
<g transform="translate(0.000000,289.000000) scale(0.100000,-0.100000)"
fill="#000000" stroke="none">
<path d="M845 2380 c24 -26 34 -29 62 -24 36 7 47 -10 13 -21 -25 -8 -25 -14
1 -44 17 -21 23 -23 46 -12 34 16 41 6 15 -22 -17 -18 -19 -26 -10 -35 18 -18
1 -27 -27 -14 -14 7 -43 12 -64 12 -32 0 -40 -4 -45 -22 -5 -22 -6 -22 -19 -4
-14 19 -15 19 -60 -7 -25 -15 -57 -41 -71 -58 -31 -37 -60 -89 -49 -89 17 1
50 37 63 68 16 40 31 42 24 2 -7 -33 -6 -34 30 -20 14 5 26 16 26 25 0 8 5 15
10 15 6 0 10 -7 10 -15 0 -28 37 -17 43 13 6 27 46 87 53 79 2 -2 -3 -23 -11
-47 -20 -56 -19 -60 8 -60 19 -1 20 -2 5 -10 -10 -6 -14 -18 -11 -30 6 -23
-12 -27 -24 -5 -8 13 -13 11 -35 -12 -42 -44 -69 -108 -75 -173 -3 -33 -3 -60
0 -60 15 0 34 58 30 90 l-4 35 19 -23 18 -24 17 26 c11 16 15 36 11 58 l-6 33
21 -25 c11 -14 21 -28 21 -32 0 -4 -13 -28 -29 -55 -38 -61 -68 -152 -81 -242
-13 -96 -26 -121 -62 -121 -17 0 -31 -6 -35 -16 -7 -20 37 -68 51 -54 13 13
79 13 92 0 7 -7 17 -3 29 12 11 13 13 17 5 11 -22 -20 -32 -15 -20 8 9 15 18
19 34 15 13 -3 26 -2 30 2 4 4 17 7 29 8 12 0 43 4 69 8 40 7 48 5 56 -11 17
-31 26 -93 13 -93 -6 0 -11 10 -11 23 -1 61 -31 87 -60 52 -12 -15 -51 -27
-122 -39 -30 -6 -39 -12 -45 -34 -3 -15 -13 -33 -22 -40 -9 -7 -11 -12 -6 -11
29 4 75 -2 75 -10 0 -5 -32 -8 -72 -7 -67 1 -73 3 -85 26 -7 14 -10 33 -7 42
7 22 -40 36 -61 18 -22 -18 -38 -88 -31 -133 5 -31 3 -42 -11 -53 -16 -12 -16
-15 -3 -23 17 -11 100 -31 130 -31 11 0 20 -4 20 -10 0 -5 -26 -10 -57 -12
l-57 -3 -21 -98 -22 -99 61 7 c33 4 66 8 71 9 13 1 8 -18 -22 -84 -101 -218
-143 -314 -140 -317 4 -4 195 15 213 21 6 2 26 39 44 83 40 93 50 107 50 67 1
-60 45 -85 128 -74 29 3 54 4 56 1 2 -3 -2 -28 -9 -56 -7 -27 -13 -51 -12 -51
1 -1 74 7 162 17 166 19 512 55 625 64 83 7 246 25 286 31 30 4 31 7 44 75 8
39 18 73 24 75 6 2 58 9 115 16 l104 13 27 121 c15 67 30 129 33 138 6 14 1
16 -26 12 -126 -20 -152 -17 -107 12 61 38 85 186 42 268 -12 23 -35 53 -52
67 -26 23 -28 27 -13 35 15 9 14 10 -4 16 -17 5 -21 18 -27 78 -13 137 -58
257 -140 372 -189 265 -555 382 -845 269 -63 -25 -183 -44 -151 -25 8 5 31 12
51 16 20 3 44 15 54 26 16 18 16 19 -24 30 -57 15 -51 23 13 18 41 -3 60 0 77
13 l22 17 -29 16 -29 17 51 -6 c58 -6 95 2 72 16 -23 15 -121 9 -163 -10 -45
-20 -110 -88 -130 -134 -12 -29 -13 -29 -23 -10 -9 15 -18 19 -39 15 -27 -5
-27 -4 -11 14 19 22 12 35 -42 76 -30 23 -124 58 -154 58 -5 0 3 -14 19 -30z
m840 -125 c214 -56 381 -189 478 -380 32 -63 64 -173 72 -246 l6 -56 -66 2
c-61 1 -67 3 -80 29 -14 26 -13 30 5 53 34 43 20 125 -24 139 -12 4 -31 17
-43 30 -27 29 -37 30 -63 4 -10 -10 -22 -16 -24 -11 -6 8 -99 23 -148 24 -16
0 -28 4 -28 10 0 10 76 5 115 -8 20 -7 20 -7 0 6 -11 7 -23 17 -27 23 -4 6
-40 12 -80 12 -40 1 -67 -1 -59 -4 11 -4 11 -6 0 -13 -10 -6 -9 -9 6 -14 11
-4 29 -10 40 -15 11 -4 35 -8 53 -9 23 -1 41 -11 62 -34 41 -44 39 -56 -9 -50
-49 7 -126 -18 -190 -62 l-49 -32 -142 5 c-134 5 -141 4 -146 -15 -4 -15 -12
-18 -35 -15 -22 3 -29 0 -29 -12 0 -9 -6 -16 -14 -16 -18 0 -29 -29 -17 -44 6
-7 4 -20 -4 -36 -19 -34 -19 -60 1 -60 12 0 13 -5 7 -22 -16 -45 -8 -133 15
-173 13 -20 21 -39 19 -41 -2 -2 -20 5 -41 15 -20 11 -32 22 -26 26 13 8 13
100 0 126 -6 11 -21 19 -35 19 -23 0 -24 2 -14 27 6 15 15 31 21 34 18 12 -2
29 -27 23 -12 -3 -26 -1 -29 5 -4 6 -22 11 -41 11 -19 0 -38 6 -42 14 -4 8
-19 16 -33 18 -17 2 -25 9 -25 23 0 17 6 20 38 17 20 -2 37 1 37 6 0 5 10 13
23 18 17 6 10 8 -32 11 -39 3 -58 0 -71 -12 -33 -30 -43 -9 -36 76 11 138 90
357 123 345 6 -3 16 1 22 8 8 10 1 19 -30 40 -51 32 -66 29 -126 -31 -47 -46
-69 -55 -30 -13 12 14 30 37 40 53 16 25 16 29 1 51 -15 24 -14 25 14 40 16 8
32 22 36 31 5 13 16 14 58 9 60 -7 67 -11 73 -43 6 -31 22 -49 48 -53 14 -2
24 -14 31 -36 5 -18 20 -44 34 -59 20 -22 23 -34 19 -69 -3 -34 0 -47 14 -60
19 -17 20 -16 31 14 12 32 28 43 28 20 -1 -7 -7 -26 -14 -43 -11 -25 -11 -35
2 -59 13 -27 16 -28 27 -13 19 26 27 20 12 -10 -11 -20 -12 -34 -4 -60 14 -46
24 -41 32 17 14 101 -23 201 -96 264 -24 20 -46 36 -50 36 -5 0 -6 6 -3 14 3
8 -2 26 -11 40 -23 35 -5 33 30 -4 23 -24 37 -30 72 -30 47 0 51 6 28 50 -9
17 -11 30 -6 30 11 0 41 -45 41 -63 0 -9 17 -19 40 -25 40 -10 40 -10 34 17
-5 25 -5 25 10 7 9 -11 16 -23 16 -28 0 -10 60 -41 67 -34 8 8 -50 75 -88 101
-20 13 -63 31 -94 40 -65 19 -114 15 -182 -15 -32 -14 -43 -16 -43 -6 0 29 88
74 197 100 80 20 254 20 328 1z m-663 -244 c-60 -77 -122 -264 -122 -366 0
-28 -5 -56 -12 -63 -12 -12 -80 -17 -90 -7 -10 10 12 138 36 206 31 89 77 166
140 236 38 42 51 51 62 42 11 -9 9 -18 -14 -48z m1003 -191 c3 -5 -3 -10 -14
-10 -12 0 -21 -5 -21 -11 0 -5 -4 -8 -10 -4 -5 3 -7 12 -3 20 6 17 39 20 48 5z
m-115 -11 c0 19 29 12 40 -9 8 -16 8 -20 -4 -20 -8 0 -18 5 -21 10 -4 6 -10 8
-15 5 -4 -3 -14 3 -21 13 -13 15 -12 16 4 3 11 -9 17 -10 17 -2z m179 -43 c7
-8 11 -34 9 -58 -3 -40 -5 -43 -33 -43 -24 0 -31 5 -38 30 -17 60 28 112 62
71z m-116 -63 c21 -51 24 -69 15 -80 -15 -18 -20 -10 -47 64 -21 56 -22 83 -3
83 4 0 19 -30 35 -67z m37 17 c0 -37 -17 -39 -30 -4 -13 34 -13 34 10 34 16 0
20 -7 20 -30z m-112 -2 c21 -21 14 -77 -13 -102 -21 -20 -39 -24 -122 -29 -84
-5 -100 -4 -110 10 -18 23 -16 29 10 54 60 58 203 99 235 67z m-276 -121 c10
-12 18 -26 17 -32 0 -5 -6 -1 -14 9 -14 18 -20 15 -16 -8 1 -4 -10 -28 -24
-52 -21 -36 -31 -44 -55 -44 -25 0 -32 7 -50 46 -11 26 -20 49 -20 53 0 3 30
6 67 6 48 0 68 4 71 14 4 12 -11 13 -87 8 -92 -7 -139 2 -125 25 4 7 42 8 113
4 94 -6 108 -9 123 -29z m466 -2 c7 -14 12 -28 12 -30 0 -8 -30 -5 -30 3 0 4
-3 17 -6 30 -9 30 10 28 24 -3z m-31 -15 c15 -39 -8 -43 -25 -5 -15 32 -15 35
1 35 7 0 18 -13 24 -30z m-1097 0 c0 -5 -14 -10 -31 -10 -17 0 -28 4 -24 10 3
6 17 10 31 10 13 0 24 -4 24 -10z m1038 -37 c8 -25 8 -34 -4 -44 -48 -40 -83
-191 -52 -227 9 -9 19 -28 23 -42 4 -14 14 -33 23 -43 8 -9 13 -19 10 -22 -4
-4 -508 45 -516 50 -1 1 11 16 27 34 l29 31 79 -11 c88 -13 207 -5 238 15 13
9 36 61 70 159 27 81 52 143 56 139 3 -4 11 -21 17 -39z m-590 25 c-3 -7 -26
-16 -52 -20 -29 -4 -58 -16 -72 -29 -39 -36 -40 -13 -1 26 30 30 42 35 82 35
33 0 45 -4 43 -12z m32 -16 c0 -10 -4 -22 -8 -27 -5 -6 -14 -29 -21 -52 -7
-26 -18 -43 -26 -43 -8 0 -15 5 -15 12 0 6 -6 3 -14 -8 -14 -18 -12 -19 22
-26 20 -4 60 -7 89 -7 58 -1 81 -18 31 -23 -45 -4 -188 13 -188 23 0 14 52 69
60 64 4 -3 10 2 14 10 3 8 1 15 -4 15 -15 0 -70 -51 -70 -66 0 -8 -7 -14 -15
-14 -14 0 -14 3 0 29 17 33 65 71 90 71 9 0 21 13 26 30 12 33 29 40 29 12z
m390 8 c13 -9 13 -11 0 -20 -18 -12 -120 -13 -120 -2 0 29 85 45 120 22z m86
-6 c-3 -9 -6 -20 -6 -25 0 -13 -12 -11 -34 6 -23 17 -16 30 19 33 21 1 26 -2
21 -14z m-1056 -4 c0 -5 -9 -10 -21 -10 -11 0 -17 -4 -14 -10 3 -5 -1 -10 -9
-10 -9 0 -14 8 -13 20 1 15 8 20 29 20 15 0 28 -4 28 -10z m80 -11 c0 -5 -4
-9 -9 -9 -5 0 -24 -3 -42 -6 -34 -7 -34 -7 -14 13 19 19 65 20 65 2z m756 5
c-3 -9 -6 -25 -6 -37 -1 -21 -1 -21 -14 -4 -17 22 -10 57 11 57 10 0 13 -6 9
-16z m518 10 c9 -3 16 -12 16 -20 0 -9 -16 -13 -57 -13 -32 0 -69 -2 -82 -3
-37 -5 -37 20 1 31 39 11 100 14 122 5z m-120 -137 c36 -87 41 -109 30 -114
-8 -3 -16 -4 -18 -2 -15 16 -86 215 -81 227 9 24 20 6 69 -111z m-226 107 c12
-4 22 -14 22 -23 0 -33 -79 -196 -104 -215 -24 -18 -32 -19 -133 -8 -94 11
-136 23 -122 36 2 2 46 -3 98 -11 123 -20 147 -10 191 78 17 33 35 72 41 86 9
24 8 25 -16 19 -20 -5 -25 -3 -25 12 0 31 9 36 48 26z m-1133 -24 c1 -20 -18
-32 -27 -17 -13 21 -9 39 10 35 9 -2 17 -10 17 -18z m911 3 c19 -26 17 -31
-17 -38 -39 -9 -46 -2 -25 30 20 30 25 31 42 8z m154 -3 c0 -17 -7 -20 -45
-20 -38 0 -45 3 -45 20 0 17 7 20 45 20 38 0 45 -3 45 -20z m-982 -2 c-5 -15
-60 -17 -65 -3 -1 6 13 11 33 13 25 1 34 -2 32 -10z m1202 -12 c0 -2 -11 -28
-25 -58 -14 -29 -25 -65 -25 -80 0 -33 -9 -58 -21 -58 -24 0 3 124 38 177 13
20 33 31 33 19z m-850 -11 c0 -2 -5 -16 -12 -30 -10 -22 -16 -25 -37 -20 -37
9 -39 14 -12 36 21 17 61 26 61 14z m1058 -22 c66 -49 87 -121 58 -198 -43
-112 -168 -138 -244 -50 -46 51 -51 145 -13 205 18 27 24 1 8 -32 -9 -18 -13
-37 -9 -42 3 -6 11 3 18 19 10 25 13 27 19 12 4 -9 5 -27 2 -38 -6 -23 11 -79
24 -79 12 0 11 17 -1 25 -5 3 -10 16 -9 28 l0 22 9 -21 c11 -27 36 -37 61 -24
27 15 24 45 -8 75 -22 20 -24 25 -10 25 18 0 21 18 11 57 -5 18 -11 22 -30 17
-25 -6 -34 10 -11 20 24 11 100 -2 125 -21z m131 -70 c14 -48 14 -84 0 -103
-9 -13 -10 -12 -5 3 9 29 -13 119 -40 162 l-25 40 30 -32 c16 -18 35 -49 40
-70z m-913 70 c21 -28 18 -49 -3 -26 -10 10 -14 13 -9 6 11 -17 -1 -30 -15
-16 -11 11 -4 53 8 53 3 0 12 -8 19 -17z m-416 -12 c0 -17 -5 -19 -32 -15 -88
15 -114 -151 -28 -173 14 -4 32 -6 41 -5 25 4 32 -26 9 -38 -11 -6 -72 -12
-135 -14 -101 -3 -117 -1 -131 16 -10 10 -34 23 -54 28 -32 9 -39 15 -44 45
-6 29 1 105 8 105 2 0 22 -18 45 -41 32 -29 42 -46 38 -61 -16 -60 114 -97
149 -43 14 22 15 30 4 53 -7 15 -14 37 -15 50 -2 13 -9 30 -16 39 -11 13 -10
17 6 29 10 8 31 14 46 14 15 0 40 7 55 15 39 20 54 19 54 -4z m853 -39 c-9
-29 -23 -52 -30 -52 -9 0 -4 17 14 55 15 30 28 53 30 52 1 -2 -5 -26 -14 -55z
m-113 18 c12 -22 5 -60 -11 -60 -5 0 -9 6 -9 14 0 7 -9 25 -21 40 l-20 26 25
0 c15 0 30 -8 36 -20z m-51 -16 c25 -32 26 -47 5 -68 -18 -19 -55 -20 -101 -4
-38 14 -45 31 -8 22 15 -4 25 -2 25 5 0 6 -16 11 -35 11 -24 0 -37 6 -45 19
-14 28 -13 33 9 26 11 -3 22 -1 26 5 3 5 28 10 55 10 41 0 52 -4 69 -26z
m-699 -13 c16 -30 12 -86 -8 -111 -44 -54 -98 48 -56 108 19 27 50 29 64 3z
m81 8 c19 -6 39 -12 46 -14 10 -3 9 -12 -1 -37 -12 -28 -19 -32 -43 -30 -32 4
-53 26 -53 58 0 12 -6 25 -12 27 -25 10 30 7 63 -4z m104 -75 c0 -28 -4 -39
-15 -39 -16 0 -26 45 -16 72 11 28 31 7 31 -33z m201 15 c84 -16 114 -26 114
-37 0 -10 -7 -13 -22 -8 -13 3 -66 11 -118 17 -100 12 -121 18 -128 37 -5 17
24 15 154 -9z m-571 -25 c16 -4 51 -52 42 -60 -1 -1 -25 0 -53 3 l-51 5 10 29
c12 30 18 33 52 23z m532 -58 c19 -5 34 -1 55 14 38 28 48 19 12 -9 -15 -11
-39 -21 -54 -21 -32 0 -80 34 -80 57 0 11 6 8 20 -10 11 -13 32 -28 47 -31z
m25 44 c27 0 38 -4 36 -12 -9 -28 -91 -21 -102 8 -5 12 -2 15 10 10 8 -3 34
-6 56 -6z m-268 -25 l16 -25 -50 0 c-47 0 -50 1 -40 19 5 11 20 22 32 24 13 2
24 5 24 6 1 0 9 -10 18 -24z m296 -48 c26 10 32 9 40 -7 15 -28 69 -47 155
-54 44 -4 141 -14 215 -22 133 -15 180 -13 180 6 0 17 26 11 71 -14 l42 -24
-39 -7 c-21 -3 -52 -10 -69 -14 -16 -5 -52 -10 -80 -10 -27 0 -126 -7 -220
-16 -93 -8 -201 -17 -240 -21 -38 -3 -88 -10 -110 -15 -22 -5 -55 -9 -74 -9
-28 0 -32 3 -26 18 4 9 9 49 10 87 2 93 19 116 76 101 28 -7 48 -7 69 1z
m-192 -49 c16 -16 15 -48 -2 -129 -9 -45 -11 -81 -5 -110 4 -24 8 -48 9 -54 0
-5 13 15 28 45 15 30 35 56 45 58 21 4 21 -8 -1 -108 -13 -58 -21 -76 -36 -78
-16 -4 -18 0 -13 29 l6 34 -16 -32 c-9 -18 -20 -33 -24 -33 -3 0 -10 15 -14
33 l-8 32 -6 -33 c-6 -33 -44 -62 -81 -62 -10 0 -23 -6 -29 -14 -16 -19 -128
-31 -147 -15 -15 12 -19 76 -6 96 4 6 27 13 52 14 42 3 45 2 42 -20 -3 -21 -1
-22 30 -16 40 9 35 3 43 47 l7 37 -70 -6 c-94 -8 -99 1 -73 129 24 115 28 126
55 140 42 24 195 35 214 16z m1056 -9 c-4 -7 -7 -23 -8 -37 -2 -38 -31 -52
-56 -26 l-21 20 38 26 c42 29 58 34 47 17z m-1327 -35 c-3 -20 -50 -134 -103
-254 -104 -234 -100 -230 -178 -230 -27 0 -37 4 -33 13 21 49 160 347 172 369
8 14 15 29 15 32 0 12 -63 5 -74 -8 -6 -7 -31 -16 -55 -19 l-43 -5 7 46 c4 26
10 50 13 54 6 5 138 23 271 37 10 1 12 -8 8 -35z m1433 -48 c0 -21 -17 -36
-40 -36 -16 0 -30 -7 -34 -15 -4 -11 2 -15 20 -15 36 0 28 -34 -9 -38 -19 -2
-27 -9 -27 -22 0 -16 5 -18 30 -13 25 5 30 2 30 -15 0 -17 -8 -21 -47 -26 -27
-2 -55 -4 -63 -4 -8 1 -35 -2 -59 -7 l-44 -7 6 43 c15 108 28 149 48 149 24 0
24 5 -6 -127 -4 -19 -1 -21 29 -20 34 2 34 2 46 72 7 39 14 73 17 78 4 7 103
10 103 3z m-230 -41 c0 -27 -31 -48 -38 -27 -9 28 -29 8 -40 -39 -13 -56 -8
-75 12 -46 17 23 46 22 46 -2 0 -25 -17 -37 -61 -44 -51 -8 -59 4 -44 66 7 29
16 64 19 79 6 28 20 35 74 37 28 1 32 -2 32 -24z m-110 8 c0 -5 -14 -33 -31
-63 -17 -30 -34 -68 -38 -85 -5 -21 -14 -31 -29 -33 -20 -3 -22 0 -16 22 3 15
3 52 -1 84 -7 51 -9 54 -18 34 -9 -19 -16 -23 -39 -18 -31 6 -33 4 -43 -56 -5
-30 -3 -38 10 -38 8 0 15 5 15 10 0 6 9 10 20 10 24 0 26 -22 4 -44 -16 -16
-89 -22 -98 -8 -4 7 28 160 35 166 2 2 36 6 76 10 l72 6 3 -32 4 -33 17 38
c12 25 24 37 37 37 11 0 20 -3 20 -7z m-256 -60 c-3 -21 -12 -48 -20 -60 -8
-13 -11 -34 -8 -52 6 -27 4 -31 -15 -31 -14 0 -22 8 -27 28 -10 47 -11 48 -19
10 -4 -23 -14 -38 -26 -41 -23 -6 -23 -7 -4 85 21 102 18 98 75 98 l51 0 -7
-37z m-124 5 c0 -20 -6 -51 -25 -134 -4 -17 -15 -23 -51 -29 -26 -3 -50 -3
-55 2 -4 4 -1 35 6 68 14 59 19 104 8 78 -2 -7 -11 -13 -18 -13 -8 0 -17 -16
-21 -37 -18 -103 -19 -108 -42 -111 -26 -4 -26 -4 -7 73 18 76 18 78 0 71 -10
-4 -15 1 -15 14 0 21 51 36 95 27 14 -2 28 0 31 4 3 5 25 9 50 9 39 0 44 -3
44 -22z m-230 -20 c0 -12 -5 -50 -11 -85 -12 -70 -27 -83 -90 -83 -25 0 -29 4
-29 28 1 15 6 54 13 87 13 63 24 72 90 74 21 1 27 -3 27 -21z m700 -120 c0 -7
-4 -29 -9 -48 -5 -19 -12 -47 -15 -62 -4 -16 -13 -28 -22 -28 -11 0 -14 6 -9
23 4 16 1 14 -11 -8 l-17 -30 -13 30 -13 30 -1 -27 c0 -19 -5 -28 -16 -28 -13
0 -15 6 -9 33 4 17 10 50 14 72 4 26 11 40 21 40 10 0 17 -13 20 -40 l5 -40
22 48 c20 43 53 65 53 35z m-185 -45 c-3 -21 -9 -48 -12 -60 -3 -13 0 -23 5
-23 12 0 18 16 27 78 4 26 12 42 21 42 17 0 17 -4 3 -72 -14 -68 -24 -79 -68
-78 -20 0 -53 -3 -75 -6 -34 -6 -37 -4 -32 12 5 17 26 121 26 130 0 2 7 4 16
4 14 0 15 -7 10 -37 -3 -21 -9 -48 -12 -59 -5 -19 -2 -22 19 -20 23 1 26 6 32
56 8 64 11 70 32 70 12 0 14 -7 8 -37z m-176 -21 c-11 -49 -11 -72 0 -72 5 0
13 25 16 55 6 46 11 55 27 55 12 0 18 -5 15 -13 -2 -7 -10 -38 -16 -69 -11
-53 -13 -56 -48 -61 -21 -4 -39 -4 -41 -2 -3 2 0 28 6 57 11 59 11 60 -7 49
-7 -5 -18 -32 -24 -62 -9 -39 -18 -55 -31 -57 -15 -3 -18 0 -12 19 18 67 19
99 3 99 -33 0 -4 29 31 32 97 8 91 11 81 -30z m-249 -20 c-1 -15 -1 -43 0 -62
2 -28 5 -22 14 30 8 50 15 66 30 68 16 4 18 0 12 -35 -4 -21 -10 -48 -13 -60
-4 -18 -1 -21 16 -16 25 6 30 -21 5 -31 -25 -10 -94 -7 -94 4 0 16 -30 12 -36
-5 -4 -8 -14 -15 -24 -15 -17 0 -16 7 12 74 28 69 48 91 71 78 5 -2 8 -16 7
-30z m-70 13 c0 -8 -7 -15 -14 -15 -10 0 -19 -20 -27 -60 -6 -33 -16 -63 -20
-66 -21 -13 -26 9 -14 61 11 51 11 55 -5 55 -14 0 -20 -13 -26 -57 -11 -69
-35 -83 -51 -31 -8 25 -11 28 -12 11 -2 -34 -12 -53 -28 -53 -12 0 -14 8 -9
38 21 114 43 143 64 80 9 -30 10 -31 11 -8 2 46 6 48 114 58 9 1 17 -5 17 -13z
m-192 -17 c-3 -7 -14 -14 -25 -16 -28 -4 -39 -32 -13 -32 28 0 25 -28 -2 -32
-13 -2 -24 -11 -26 -20 -2 -12 2 -15 17 -11 14 4 21 1 21 -10 0 -15 -40 -27
-91 -27 -23 0 -29 5 -29 21 0 11 -4 17 -10 14 -5 -3 -10 -15 -10 -26 0 -11 -7
-19 -16 -19 -13 0 -14 8 -8 47 13 88 18 97 55 105 19 3 37 3 41 0 9 -9 -10
-82 -21 -82 -5 0 -6 -12 -3 -26 7 -36 17 -19 32 53 13 63 19 69 68 72 15 1 22
-4 20 -11z"/>
<path d="M1375 2216 c-36 -11 -28 -12 90 -12 141 1 165 -2 267 -34 206 -63
408 -300 432 -505 8 -63 26 -84 26 -29 0 185 -167 427 -360 521 -47 23 -113
49 -146 57 -74 19 -251 20 -309 2z"/>
<path d="M1110 2025 c-19 -23 4 -73 25 -55 18 15 19 30 1 53 -12 15 -15 16
-26 2z"/>
<path d="M1225 1965 c-10 -22 -18 -45 -17 -51 1 -6 -9 -21 -22 -33 -20 -19
-23 -29 -19 -64 7 -53 9 -54 33 -32 11 10 20 14 20 8 0 -5 -9 -18 -19 -27 -18
-16 -39 -102 -27 -113 9 -10 63 112 70 157 3 25 2 63 -4 85 -6 26 -5 44 1 52
6 6 9 22 6 35 -3 20 -6 18 -22 -17z"/>
<path d="M1141 1957 c-8 -10 -7 -22 1 -45 14 -37 19 -39 42 -13 17 18 17 20 0
29 -10 6 -15 16 -11 26 8 20 -16 22 -32 3z"/>
<path d="M915 1867 c-13 -24 -34 -70 -45 -103 -23 -67 -39 -189 -21 -164 6 8
11 26 11 40 0 39 38 166 65 221 31 61 25 64 -10 6z"/>
<path d="M2171 1451 c71 -24 99 -61 99 -133 0 -55 -17 -87 -59 -115 -19 -13
-28 -23 -20 -23 46 0 89 66 89 135 0 77 -39 131 -101 140 -28 4 -30 4 -8 -4z"/>
<path d="M2164 1413 c3 -8 6 -24 6 -36 1 -22 1 -22 15 -3 21 27 19 43 -6 49
-15 4 -19 2 -15 -10z"/>
<path d="M2208 1389 c-7 -19 12 -59 29 -59 19 0 16 24 -6 51 -14 17 -19 19
-23 8z"/>
<path d="M2020 1305 c0 -24 31 -95 42 -95 6 0 16 -7 22 -15 13 -19 93 -34 82
-17 -4 7 -16 12 -27 12 -44 0 -99 60 -99 110 0 11 -4 20 -10 20 -5 0 -10 -7
-10 -15z"/>
<path d="M2225 1300 c-8 -26 4 -48 16 -29 12 19 11 49 0 49 -5 0 -12 -9 -16
-20z"/>
<path d="M2186 1245 c-11 -8 -17 -17 -14 -21 8 -8 48 14 48 26 0 14 -12 12
-34 -5z"/>
<path d="M1098 1103 c-21 -3 -29 -11 -34 -31 -3 -15 -9 -44 -14 -64 -7 -32 -5
-38 9 -38 45 1 59 12 65 53 4 23 9 52 13 65 3 12 1 21 -3 21 -5 -1 -21 -4 -36
-6z"/>
<path d="M1720 970 c0 -11 6 -20 14 -20 7 0 16 9 19 20 4 15 0 20 -14 20 -12
0 -19 -7 -19 -20z"/>
<path d="M1591 930 c-14 -63 -14 -60 3 -60 8 0 16 15 20 38 4 20 9 45 12 55 3
11 0 17 -9 17 -10 0 -19 -17 -26 -50z"/>
<path d="M1361 910 c-14 -63 -14 -60 3 -60 9 0 18 19 25 50 14 63 14 60 -3 60
-9 0 -18 -19 -25 -50z"/>
<path d="M733 1448 c-22 -28 -4 -78 28 -78 29 0 21 41 -11 57 l-25 13 28 0
c15 0 30 -7 33 -15 9 -22 24 -18 24 5 0 11 -6 20 -12 20 -7 0 -22 3 -34 6 -11
3 -25 -1 -31 -8z"/>
<path d="M1735 624 c-303 -25 -611 -77 -690 -115 -17 -8 -17 -9 5 -4 57 12
371 54 445 60 44 4 175 17 290 30 116 14 241 27 279 30 39 3 72 8 75 11 9 8
-251 1 -404 -12z"/>
</g>
</svg>
